<?xml version="1.0" encoding="UTF-8" standalone="no"?>
<!-- Created with Inkscape (http://www.inkscape.org/) -->

<svg
   width="196.57323mm"
   height="215.36528mm"
   viewBox="0 0 196.57322 215.36528"
   version="1.1"
   id="svg1"
   xml:space="preserve"
   xmlns="http://www.w3.org/2000/svg"
   xmlns:svg="http://www.w3.org/2000/svg"><defs
     id="defs1" /><g
     id="layer1"
     transform="translate(-20.408679,-26.316456)"><path
       id="path1"
       style="fill:#000000;stroke-width:9;stroke-dasharray:none;paint-order:fill markers stroke"
       d="m 86.226562,52.484375 c -3.432511,0.0706 -6.981747,0.706706 -9.858239,2.687534 -5.77834,3.328798 -10.603278,8.806979 -12.077871,15.424122 -1.223529,5.688485 0.321291,11.783268 3.652907,16.450844 2.360275,3.392849 5.943137,5.580897 9.612846,7.270158 1.376478,0.672081 2.868732,1.21595 4.471445,1.572192 2.565054,0.505123 5.205299,0.490089 7.809233,0.427074 1.832537,-0.04207 3.626051,-0.413267 5.369447,-0.961883 1.47469,-0.366382 2.995755,-0.618719 4.318594,-1.418623 4.450956,-2.49542 8.578856,-5.967065 10.894496,-10.596643 1.15331,-2.420235 1.70979,-4.988083 1.97316,-7.626259 0.26429,-2.935189 -0.0213,-5.799629 -1.06836,-8.576172 -1.55388,-4.20891 -4.72645,-8.033009 -8.71059,-10.364263 -4.016558,-2.480018 -8.611153,-4.295037 -13.390758,-4.287156 -0.998491,-0.03181 -1.997605,-0.0065 -2.99631,-9.25e-4 z m 61.886718,0.04102 c -4.16266,0.21286 -8.4026,1.253635 -11.82031,3.728515 -1.4071,0.532052 -2.5528,1.536848 -3.48764,2.5994 -2.22832,2.284563 -4.17991,4.768666 -5.48306,7.65646 -0.63464,1.265154 -0.96158,2.993319 -1.02752,4.459822 -0.0752,2.374257 -0.0392,4.75335 0.0136,7.127222 0.0827,2.185908 0.79928,4.302191 1.97093,6.141471 1.74653,2.976467 4.2869,5.705272 7.06942,7.695112 2.87986,2.047022 6.23926,3.736881 9.78449,4.360737 3.22036,0.494663 6.54516,0.190335 9.69687,-0.270963 7.36161,-1.25671 14.20485,-6.164112 17.11867,-13.131836 1.4086,-3.397727 1.63602,-7.310774 1.18993,-10.988321 -0.65404,-4.993049 -2.85564,-9.986857 -6.85894,-13.182777 -2.26077,-1.818125 -4.73853,-3.374706 -7.3189,-4.695007 -2.90326,-1.431059 -6.19617,-1.572844 -9.37217,-1.534354 -0.49235,-0.01007 -0.98375,0.01036 -1.47539,0.03452 z m -60.087889,4.970703 c 7.035102,0.150468 13.933559,4.051991 17.556639,10.105468 1.6791,3.10549 1.75139,6.843798 1.06836,10.240235 -0.75604,3.806927 -3.37944,7.003538 -6.44389,9.262257 -2.22753,1.748831 -4.94521,2.722782 -7.712557,3.200853 -3.073742,0.579922 -6.274332,0.813873 -9.335401,0.02536 -4.019435,-0.999852 -7.952831,-3.124547 -10.323212,-6.616149 -3.748867,-5.42655 -3.890135,-13.230468 -0.03775,-18.64181 1.715834,-2.414436 4.323589,-3.977149 6.878198,-5.36723 2.386213,-1.192318 4.949922,-2.199601 7.65735,-2.194098 0.230754,-0.0048 0.461499,-0.01065 0.69226,-0.01489 z m 61.876949,0.433594 c 6.20114,-0.07243 12.54888,3.091945 15.64097,8.572527 3.4476,6.155615 2.42622,14.64335 -2.82123,19.485444 -4.11456,3.815005 -10.02511,5.142659 -15.50207,4.632516 -7.37814,-0.761865 -14.03878,-6.722355 -15.16602,-14.127624 -0.63808,-3.837663 0.32028,-7.944865 2.78705,-10.982375 3.48022,-4.673504 9.2175,-7.626305 15.0613,-7.580488 z m -88.660152,2.832031 c -2.656237,2.214535 -5.22508,4.690888 -6.859039,7.774448 -1.494343,3.345702 -1.37906,7.053645 -1.406964,10.672206 0.124112,4.45629 1.485527,9.008881 4.012483,12.763096 2.985004,4.739618 7.394251,8.437671 12.005842,11.560551 7.522257,5.16511 15.458712,9.68534 23.312898,14.31789 5.369863,3.07483 10.605282,6.382 15.703462,9.88988 3.18904,2.09201 6.2562,4.3771 9.0464,6.98149 0.54856,0.45641 1.12922,0.87321 1.72007,1.27286 1.47746,-0.88933 2.89822,-1.88633 4.16797,-3.05664 -3.25208,-3.51153 -7.15688,-6.3276 -10.98524,-9.16667 -4.5615,-3.1786 -9.16173,-6.31366 -13.996636,-9.06667 C 89.128218,109.47644 80.045249,104.6534 71.473715,98.993291 65.87399,95.095988 60.881691,89.890571 58.494572,83.396444 57.294331,79.619215 57.633633,75.598101 57.734375,71.699219 c 0.119336,-2.18925 0.758438,-4.314404 1.755858,-6.259295 0.842566,-1.872848 1.854235,-3.660837 2.781251,-5.492658 -0.343099,0.271484 -0.686198,0.542968 -1.029296,0.814453 z M 175.76562,60.339844 c 3.12474,6.074041 5.02336,13.060722 3.92573,19.906647 -0.90278,5.152921 -3.89834,9.676494 -7.40694,13.446472 -1.7048,1.82848 -3.69355,3.363106 -5.73363,4.787506 -0.55651,0.702844 -1.22663,1.341005 -2.11796,1.561551 -2.32549,1.10991 -4.34189,2.68586 -6.58746,3.95631 -9.72554,6.00376 -19.58065,11.78851 -29.04019,18.18677 -1.38809,0.88391 -3.03243,1.43331 -4.17822,2.65084 -0.19126,0.96005 0.91057,1.49467 1.35519,2.20624 0.68881,0.8117 1.31552,1.68354 1.80106,2.6336 5.15711,-3.53488 10.36273,-7.00507 15.76563,-10.1582 0.62007,-0.86117 1.56801,-1.37609 2.54838,-1.70781 2.58202,-1.30645 4.92737,-3.02254 7.45739,-4.42289 7.55653,-4.55118 15.28396,-8.85747 21.79409,-14.891927 3.31636,-3.016199 6.09531,-6.612152 7.75533,-10.821155 1.18499,-3.103509 1.80095,-6.425314 1.91942,-9.742157 0.14206,-4.138716 -1.01178,-8.311174 -3.37144,-11.725168 -1.56119,-2.297872 -3.62508,-4.327031 -5.88638,-5.866629 z M 47.601562,74.873047 c -1.743662,2.743931 -2.448126,6.035701 -2.457143,9.260524 -0.227807,4.024991 0.143321,8.063925 1.569414,11.876643 1.143872,2.923346 2.806752,5.555816 4.669574,8.060126 2.209261,2.99429 5.015795,5.4636 7.90792,7.77342 3.183444,2.56833 6.475214,5.03493 9.993442,7.12231 2.932885,1.31824 5.497503,3.29228 8.305913,4.84063 4.667782,2.69996 9.352805,5.36944 13.943569,8.19879 5.923315,3.46541 11.753189,7.09676 17.354789,11.06308 0.45841,0.16677 0.83486,0.89364 1.35315,0.66971 0.86654,-0.53486 1.38977,-1.46662 2.07226,-2.20117 0.32054,-0.45545 0.61296,-0.93024 0.8711,-1.42383 -2.81922,-3.54324 -7.01237,-5.50258 -10.65003,-8.04892 -9.450515,-6.14207 -19.399554,-11.48442 -28.883092,-17.56347 -4.909246,-3.09063 -9.891749,-6.15372 -14.25496,-10.00258 -5.381443,-4.852633 -9.706643,-11.094726 -11.460738,-18.190459 -1.026284,-3.637756 -1.290136,-7.551565 -0.290246,-11.22582 -0.01076,-0.02241 0.05097,-0.358687 -0.04492,-0.208984 z m 143.236328,0.40625 c -0.0123,5.35622 0.0439,10.923498 -2.14617,15.927764 -2.44514,5.765046 -6.84773,10.440499 -11.56669,14.439819 -5.83716,4.85467 -12.44791,8.64106 -18.85762,12.66965 -10.5625,6.5039 -21.38849,12.60729 -31.36583,19.98645 -5.9348,4.55256 -11.49622,9.69226 -16.4483,15.32874 -2.65878,3.21489 -5.11761,6.59979 -6.7824,10.47316 -2.10992,4.49585 -4.18532,9.1038 -5.120753,14.02896 -0.182265,1.1972 -0.136014,2.49097 0.465498,3.57124 3.580685,-5.65838 6.178085,-11.97697 9.893965,-17.60128 0.78615,-1.08389 1.17869,-2.40523 2.05018,-3.44256 3.88735,-4.95976 8.51654,-9.2894 13.30463,-13.36579 2.54084,-2.0897 5.04947,-4.23555 7.75121,-6.11497 2.76837,-1.74323 5.60153,-3.38108 8.34399,-5.16666 8.33826,-5.25221 16.83995,-10.24078 25.29552,-15.30308 5.17348,-3.37168 10.50273,-6.554 15.29211,-10.46948 3.58193,-3.2146 6.85629,-6.91564 9.27933,-11.122119 1.78674,-3.304931 2.84321,-7.128656 3.00586,-10.761719 0.12218,-3.828713 0.0265,-7.710135 -1.50936,-11.280356 -0.25606,-0.611679 -0.59494,-1.236509 -0.88517,-1.797769 z m 6.70313,21.767578 c -1.51688,3.804995 -3.1048,7.662955 -5.67655,10.890455 -4.10264,5.57186 -9.49762,10.06917 -15.24947,13.8517 -1.16798,0.67752 -2.32974,1.28218 -3.36116,2.17997 -4.8021,2.76875 -9.48984,5.72908 -14.24121,8.58445 -7.13601,4.35548 -14.30856,8.65572 -21.43041,13.03144 -1.45975,1.11203 -2.92634,2.23113 -4.54366,3.10127 -6.7727,5.16085 -12.84586,11.18878 -17.98583,17.97595 -0.80776,1.18296 -1.18272,2.6013 -2.05633,3.74702 -1.35731,2.23774 -2.47717,4.6177 -3.54484,7.00582 -1.58617,3.65103 -2.73369,7.64996 -2.34061,11.6645 0.17414,1.2791 0.7259,2.46646 1.32264,3.59828 1.33472,-5.19491 3.37151,-10.19022 5.80664,-14.96289 2.78299,-5.37332 6.36783,-10.34677 10.73349,-14.5466 9.01041,-8.96842 19.96553,-15.61667 30.93306,-21.8904 9.43149,-5.48128 18.99118,-10.78452 27.6949,-17.39015 4.11179,-3.16497 8.08341,-6.71787 10.71277,-11.25292 2.75243,-4.58616 3.91628,-10.26767 3.22657,-15.587895 z M 40.638672,98.791016 c 0.315028,3.786244 0.863465,7.619754 2.247305,11.143564 2.417871,5.62544 7.053238,9.8741 11.690054,13.69442 10.462119,8.47452 22.437957,14.69889 33.996235,21.48819 4.124943,2.33966 8.086301,4.9439 12.039074,7.55968 0.53022,0.44301 1.02808,0.62477 1.29566,-0.16614 0.86176,-1.23933 1.69296,-2.51965 2.2512,-3.9287 -1.98706,-2.13425 -4.658794,-3.42204 -7.040575,-5.04568 -7.467367,-4.65656 -15.124347,-8.99917 -22.61741,-13.61257 -3.337364,-1.92379 -6.773474,-3.69667 -9.884389,-5.98476 -3.720233,-2.60827 -7.43099,-5.25187 -10.902786,-8.1865 -3.879775,-3.4494 -7.067218,-7.61238 -9.837968,-11.98405 -1.307382,-2.04988 -2.329267,-4.261168 -3.332103,-6.467689 0.0319,0.496745 0.0638,0.99349 0.0957,1.490235 z m 70.449218,-1.091797 c -2.85709,0.129733 -5.21148,2.766401 -5.24257,5.588831 -0.34415,3.30062 1.45638,6.41268 3.76996,8.62677 2.64533,2.8895 5.64513,5.62027 9.29488,7.15549 1.1,0.31601 2.23693,-0.23124 2.89754,-1.11259 3.42406,-3.34477 7.58154,-6.08337 10.08856,-10.25711 1.22125,-2.08768 1.18496,-4.57493 0.56077,-6.86077 -0.311,-1.415318 -1.48644,-2.474126 -2.86719,-2.816402 -3.01155,-0.738153 -6.63734,-0.256279 -8.74109,2.218682 -0.99498,1.02309 -2.61015,0.33318 -3.38535,-0.616466 -1.60664,-1.728355 -4.15084,-1.985974 -6.37551,-1.926435 z m 87.01563,19.802731 c -2.26701,2.69823 -4.28782,5.61559 -6.86884,8.03668 -6.61382,6.72194 -14.75509,11.62545 -22.8023,16.41758 -7.56748,4.41297 -15.10377,8.87861 -22.61011,13.39535 -8.30531,5.12768 -16.3917,11.2446 -21.88672,19.4355 -3.30203,4.80246 -5.9601,9.89512 -7.68676,15.46258 -1.09624,3.62104 -2.2702,7.30965 -2.69826,11.10044 -0.19578,3.03551 0.56239,6.01814 1.30299,8.93508 1.24813,-5.4371 1.4812,-11.15084 3.75443,-16.3172 2.90976,-7.42159 7.09423,-14.44159 12.82222,-20.03599 6.68799,-6.67786 14.69519,-11.81161 22.67161,-16.79369 8.34152,-5.1397 16.98289,-9.77245 25.37964,-14.81926 5.3051,-3.30798 10.48004,-7.12487 14.16167,-12.25201 2.26241,-3.304 3.72463,-7.1395 4.30222,-11.05529 0.0671,-0.50018 0.13824,-1.01297 0.15821,-1.50977 z m -157.328129,1.41797 c 0.88549,4.27639 2.649708,8.34603 4.901432,12.07263 3.357191,4.98897 8.618371,8.15783 13.529369,11.41337 5.523786,3.59045 11.281676,6.79892 17.029409,10.0102 3.836044,2.26072 7.652055,4.52573 11.496626,6.74858 2.4798,1.57986 4.756701,3.47578 7.35957,4.86069 0.880883,-1.49668 1.574475,-3.10809 2.001953,-4.79297 -1.025499,-1.48557 -2.691139,-2.32941 -4.096342,-3.40062 -2.49238,-1.70535 -5.078963,-3.31775 -7.874361,-4.46852 -0.738153,-0.35624 -0.985435,-1.24412 -1.80649,-1.46899 -2.303965,-1.08498 -4.397962,-2.56045 -6.681454,-3.69076 -0.627707,-0.33693 -1.339601,-0.55486 -1.736665,-1.184 -0.813007,-0.80394 -1.976411,-1.0516 -2.905067,-1.69242 -4.640552,-2.62411 -9.179123,-5.4363 -13.576803,-8.45005 -6.674183,-4.71651 -12.763288,-10.30754 -17.793521,-16.76183 0.05078,0.26823 0.101562,0.53646 0.152344,0.80469 z m 21.359375,32.98438 c -0.713647,1.12183 -1.1581,2.82431 -0.05189,3.85559 1.955627,2.2175 4.655034,3.55312 6.972882,5.33563 5.99549,4.18185 12.085969,8.17681 18.38256,11.87733 0.887086,0.61282 1.732988,1.36088 2.643716,1.78496 0.72491,-0.69215 0.476263,-1.8347 0.847657,-2.70312 0.291883,-1.08421 0.490312,-2.52803 -0.575704,-3.26846 -1.488126,-1.26291 -3.239095,-2.16288 -4.837324,-3.27455 -6.919231,-4.42814 -14.113057,-8.40442 -21.228767,-12.50109 -0.711418,-0.37914 -1.422431,-0.77271 -2.153127,-1.10629 z m 114.847654,0.38672 c -3.47682,0.46314 -6.39875,2.56787 -9.39853,4.21704 -3.70991,2.25599 -7.5154,4.23636 -11.15596,6.55041 -6.54643,4.01923 -13.16524,8.01206 -18.57944,13.53653 -4.09213,4.15808 -7.53891,8.88288 -10.39146,13.95383 -2.00824,3.63502 -3.58761,7.61087 -4.32242,11.6501 -0.6918,3.53302 -1.07194,7.0383 -1.11831,10.65299 0.0152,0.93274 0.0873,1.86495 0.21808,2.7887 0.76723,0.3642 2.15814,0.65005 2.49153,-0.41612 0.58251,-1.72117 0.13354,-3.58791 0.59297,-5.33856 0.82831,-5.34116 2.72928,-10.4587 4.98176,-15.34926 1.73115,-3.34082 4.30091,-6.13403 6.71051,-8.98774 4.97073,-5.56844 10.73482,-10.40535 16.91397,-14.57786 1.32812,-0.94691 2.80961,-1.66293 4.1299,-2.61165 0.84957,-0.74985 1.72433,-1.52127 2.78095,-1.94595 0.78577,-0.79376 1.70011,-1.42719 2.70711,-1.90288 3.8763,-2.28618 7.63022,-4.72409 11.41572,-7.16792 1.12569,-0.80175 2.43725,-1.50621 3.1691,-2.7167 0.41335,-0.72006 0.55805,-2.06086 -0.39743,-2.38379 -0.25,-0.0122 -0.49874,0.0353 -0.74805,0.0488 z" /></g></svg>
