<?xml version="1.0" encoding="UTF-8" standalone="no"?>
<!-- Created with Inkscape (http://www.inkscape.org/) -->

<svg
   width="196.57323mm"
   height="215.36528mm"
   viewBox="0 0 196.57322 215.36528"
   version="1.1"
   id="svg1"
   xml:space="preserve"
   xmlns="http://www.w3.org/2000/svg"
   xmlns:svg="http://www.w3.org/2000/svg"><defs
     id="defs1" /><g
     id="layer1"
     transform="translate(-20.408679,-26.316456)"><path
       style="fill:#fff"
       d="m 121.11744,216.86288 c -1.6151,-1.6151 -0.30711,-14.82696 2.08001,-21.00996 3.47029,-8.9886 11.23294,-19.37598 18.60602,-24.89714 1.08208,-0.81029 2.0939,-1.61336 2.24848,-1.7846 0.86531,-0.95854 18.25324,-11.78064 18.92802,-11.78064 0.16037,0 0.96302,-0.46827 1.78366,-1.04059 0.82064,-0.57233 3.43119,-2.09005 5.80121,-3.37273 6.03781,-3.26769 9.46282,-3.09909 9.46282,0.46582 0,2.19017 -1.13344,3.40635 -5.97656,6.41288 -2.43247,1.51003 -5.43449,3.40461 -6.67115,4.21018 -1.23667,0.80557 -2.94411,1.81482 -3.79431,2.24279 -0.85021,0.42796 -1.54584,0.99948 -1.54584,1.27003 0,0.27055 -0.34022,0.49191 -0.75605,0.49191 -0.41584,0 -1.2139,0.5059 -1.77349,1.12424 -0.55958,0.61833 -1.21905,1.12424 -1.46549,1.12424 -0.75895,0 -7.8917,5.09308 -11.74434,8.38594 -4.06902,3.47781 -7.7317,7.19591 -10.01205,10.16357 -0.83128,1.08183 -1.92413,2.42539 -2.42856,2.98568 -3.00198,3.33443 -7.2336,15.50079 -7.2336,20.79737 0,3.69798 -0.729,4.88555 -2.99902,4.88555 -1.00937,0 -2.13876,-0.30354 -2.50976,-0.67454 z m -7.6306,-5.33548 c -0.16895,-0.55907 -0.66775,-2.78716 -1.10845,-4.95133 -0.90746,-4.45636 -0.60911,-6.97362 1.7655,-14.89619 1.97403,-6.58605 3.05455,-9.01024 6.75269,-15.14987 6.12213,-10.1639 14.73585,-17.50035 31.86824,-27.14273 0.61833,-0.34801 3.1032,-1.85157 5.52193,-3.34125 2.41874,-1.48967 4.4788,-2.7085 4.57791,-2.7085 0.45002,0 13.3802,-7.91065 17.163,-10.50027 5.71992,-3.91574 11.85664,-9.66308 14.95726,-14.00821 1.6218,-2.27275 2.96298,-3.59754 3.64205,-3.59754 2.52342,0 0.30467,9.95668 -3.44472,15.45831 -3.57925,5.25195 -10.14028,10.54332 -19.65156,15.84867 -35.43529,19.76564 -45.74135,28.01467 -52.92027,42.35771 -2.91556,5.82512 -4.19014,9.64847 -4.99171,14.97353 -1.17798,7.82566 -1.32857,8.31295 -2.62706,8.50085 -0.76747,0.11105 -1.30796,-0.1918 -1.50481,-0.84318 z m -7.08326,-19.3782 c -1.05651,-2.45594 -1.18868,-3.46665 -0.85761,-6.55817 0.21527,-2.01013 0.65119,-4.3082 0.96871,-5.10682 0.31753,-0.79862 0.76781,-1.95794 1.00064,-2.57628 0.91417,-2.42789 4.23334,-9.00433 4.63384,-9.1813 0.23323,-0.10305 0.42406,-0.40713 0.42406,-0.67572 0,-2.06571 10.45073,-13.61883 16.52012,-18.26273 1.20234,-0.91994 2.51228,-1.98882 2.91098,-2.37528 0.39871,-0.38646 0.94824,-0.70265 1.2212,-0.70265 0.27295,0 1.06047,-0.52563 1.75005,-1.16807 0.68958,-0.64244 2.69767,-1.99744 4.46243,-3.01112 2.91254,-1.67296 12.86562,-7.7088 26.25559,-15.92217 2.78249,-1.70678 5.62625,-3.38395 6.31947,-3.72705 0.69321,-0.34311 1.26235,-0.81354 1.26477,-1.04542 0.002,-0.23187 0.28845,-0.42159 0.63565,-0.42159 1.00811,0 7.78337,-5.00403 11.37971,-8.40475 4.38681,-4.1482 7.90996,-9.17344 9.62396,-13.727144 1.46916,-3.903235 2.56473,-5.974175 3.16044,-5.974175 0.84236,0 1.58346,6.589742 1.10631,9.837149 -1.75649,11.95431 -8.45265,19.22393 -29.27441,31.78141 -4.79208,2.89007 -10.61002,6.30422 -12.92877,7.58699 -20.56904,11.37919 -33.04488,21.67007 -39.50103,32.58302 -2.95294,4.99141 -6.18344,12.5482 -7.14905,16.72308 -0.98048,4.23919 -2.2009,4.34137 -3.92706,0.32879 z m -8.694663,-9.58832 c -1.698647,-2.42516 -0.93029,-6.67985 2.771393,-15.34635 2.10931,-4.93837 4.74121,-9.81598 5.90753,-10.94823 0.15923,-0.15459 1.02431,-1.29288 1.92239,-2.52955 2.81997,-3.88314 12.03172,-12.58429 18.06618,-17.06477 5.48811,-4.07482 11.30229,-7.78655 27.24505,-17.39301 16.39585,-9.87948 21.98534,-13.78944 26.51415,-18.54719 7.03904,-7.394839 9.17424,-12.735659 9.09151,-22.740809 -0.0602,-7.28239 0.41078,-8.14046 2.46353,-4.48809 2.49722,4.44321 3.23073,7.47856 3.15768,13.06684 -0.0764,5.84116 -0.87053,8.88127 -3.71343,14.215119 -1.67102,3.1352 -7.28185,9.41337 -10.82618,12.11386 -2.52638,1.9249 -16.94284,11.32673 -17.36803,11.32673 -0.33814,0 -19.53352,11.64484 -24.22888,14.6984 -2.16417,1.40743 -4.56723,2.88767 -5.34015,3.28942 -0.77291,0.40175 -1.53178,0.88836 -1.68636,1.08134 -0.15458,0.19299 -2.05174,1.72807 -4.2159,3.4113 -7.39847,5.75432 -16.58253,15.36857 -16.58253,17.35925 0,0.2966 -0.21571,0.62359 -0.47934,0.72665 -0.44081,0.17231 -1.73206,2.48665 -8.17752,14.65679 -1.26747,2.39319 -2.606333,4.35358 -2.975263,4.35643 -0.36892,0.003 -1.06455,-0.557 -1.54583,-1.24413 z m -9.0258,-6.72995 c -0.618332,-0.35064 -1.250718,-0.81356 -1.405301,-1.02871 -0.154583,-0.21516 -1.091543,-0.80642 -2.082133,-1.3139 -3.682049,-1.88633 -21.873059,-14.1159 -23.634876,-15.88941 -1.004791,-1.01145 -1.826892,-2.31971 -1.826892,-2.90723 0,-1.9005 1.211539,-4.60871 2.061742,-4.60871 0.455137,0 2.64374,1.096 4.863564,2.43556 2.219823,1.33955 5.764809,3.37932 7.877747,4.53281 3.621686,1.97715 8.95394,5.23015 14.837982,9.05206 3.612193,2.34626 3.8415,2.88188 2.977267,6.95433 -0.768987,3.62363 -1.369275,4.07735 -3.6691,2.7732 z m 1.405301,-13.11501 c -2.318747,-1.67323 -4.373095,-3.05003 -4.565219,-3.05957 -0.192123,-0.01 -3.060808,-1.66153 -6.374856,-3.67111 -3.314047,-2.00958 -6.106419,-3.65379 -6.205271,-3.65379 -0.501113,0 -9.168328,-5.09214 -14.614458,-8.58625 -11.343701,-7.27786 -14.185745,-10.40041 -17.621813,-19.3611 -1.89876,-4.95165 -2.347097,-9.15259 -0.97679,-9.15259 0.437003,0 1.521164,0.98804 2.409246,2.19564 4.254192,5.7848 12.341794,13.14032 19.537668,17.76914 6.750502,4.34232 13.209919,8.14124 13.842809,8.14124 0.28362,0 0.515674,0.22345 0.515674,0.49656 0,0.2731 0.442669,0.64135 0.98371,0.81832 0.541041,0.17697 2.248482,1.103 3.794313,2.05784 1.545831,0.95484 3.253272,1.88087 3.794313,2.05784 0.541041,0.17697 0.983711,0.54521 0.983711,0.81832 0,0.27311 0.265248,0.49656 0.58944,0.49656 1.037153,0 9.758157,5.49349 11.336752,7.1412 1.42868,1.49122 1.47828,1.71038 0.80284,3.54796 -1.32746,3.6114 -2.22294,5.05044 -3.122684,5.01812 -0.491415,-0.0177 -2.790638,-1.4011 -5.109385,-3.07433 z m 7.206819,-10.29773 c -2.064989,-1.43896 -4.973962,-3.30653 -6.464384,-4.15018 -1.490421,-0.84364 -3.721673,-2.13939 -4.958338,-2.87945 -1.236665,-0.74005 -5.030978,-2.92466 -8.431806,-4.85469 -22.275319,-12.64161 -33.32254,-22.07256 -36.552457,-31.20463 -0.847915,-2.39734 -1.951499,-9.13144 -1.95213,-11.911925 -0.0012,-5.067334 1.684405,-4.564634 3.950084,1.178074 1.597552,4.049241 6.906821,11.372351 11.166339,15.401811 2.638227,2.49573 15.752194,11.91459 16.588801,11.91459 0.260946,0 3.311275,1.78673 9.609965,5.62903 1.854997,1.13158 5.522833,3.32391 8.150746,4.87185 14.087683,8.29816 17.425733,10.62408 17.425733,12.14206 0,1.08071 -3.46889,6.58621 -4.11663,6.53353 -0.36376,-0.0296 -2.350933,-1.23112 -4.415923,-2.67007 z m 11.905263,-7.24191 c -0.46374,-0.17653 -0.96965,-0.50083 -1.12424,-0.72065 -0.3138,-0.44625 -13.403238,-8.98779 -13.773288,-8.98779 -0.129289,0 -2.964372,-1.67653 -6.300185,-3.72561 -3.335813,-2.04909 -7.709317,-4.61459 -9.718898,-5.70112 -2.00958,-1.08652 -4.711175,-2.6984 -6.003544,-3.58195 -1.292369,-0.88355 -2.497793,-1.60645 -2.67872,-1.60645 -1.601002,0 -14.900243,-10.12717 -17.556989,-13.36937 -6.783718,-8.278674 -8.89791,-14.002879 -8.50351,-23.023349 0.195977,-4.48225 0.516213,-6.06031 1.751239,-8.62975 1.609729,-3.34901 3.351665,-5.3258 4.22011,-4.78907 0.323401,0.19988 0.235426,1.69903 -0.225892,3.84938 -1.042119,4.85765 -0.979721,6.69599 0.40096,11.81287 2.065906,7.65635 7.538617,14.830049 15.667577,20.537209 4.98376,3.49898 19.963687,12.71981 29.16077,17.9498 2.696927,1.53363 10.67624,6.60114 11.62837,7.38495 0.32863,0.27055 1.21397,0.81607 1.96741,1.21227 2.63416,1.38519 6.71003,5.16658 6.71003,6.22522 0,0.95413 -1.07296,2.52953 -3.27234,4.80473 -0.79435,0.82174 -1.03563,0.85858 -2.34886,0.35868 z m 6.10064,-9.862 c -3.32916,-3.02808 -3.0699,-2.83434 -10.03547,-7.49908 -6.395903,-4.28323 -7.869033,-5.22059 -10.925485,-6.95195 -4.626117,-2.62051 -6.094557,-3.4855 -15.098238,-8.89372 C 68.349928,105.42705 62.737376,101.35251 59.07728,97.330618 55.334227,93.217581 52.619517,88.045711 51.833035,83.529401 c -0.906363,-5.20473 -0.461245,-12.33176 0.969054,-15.51606 1.696332,-3.77658 8.984964,-10.671302 11.28826,-10.67819 1.009994,-0.003 0.865124,1.551437 -0.306045,3.283846 -0.988398,1.462053 -2.721676,5.000364 -3.979347,8.123444 -0.82,2.03624 -0.82,11.68281 0,13.71905 1.794281,4.45559 3.287095,6.79146 6.373458,9.9728 4.163814,4.29196 6.942622,6.159668 21.942582,14.748139 12.306563,7.0463 17.792453,10.30137 18.268903,10.8399 0.15459,0.17473 2.33106,1.64958 4.8366,3.27746 2.50554,1.62788 5.14241,3.58448 5.85971,4.34801 0.7173,0.76353 1.58578,1.38823 1.92997,1.38823 0.7761,0 5.92368,5.16749 5.92368,5.9466 0,0.76272 -5.2574,4.73711 -6.24457,4.72066 -0.43006,-0.007 -1.95743,-1.08222 -3.39415,-2.38901 z m 11.0531,-4.8769 c -0.19125,-0.60259 -1.10003,-1.90095 -2.01949,-2.88524 -1.0011,-1.07169 -1.54789,-2.15431 -1.363,-2.6987 0.16981,-0.49998 2.61609,-2.42679 5.43617,-4.28179 2.82008,-1.855 6.29212,-4.15053 7.71565,-5.10118 1.42353,-0.95065 7.14141,-4.4674 12.7064,-7.81499 5.565,-3.3476 11.17556,-6.8068 12.46793,-7.687097 1.29237,-0.880287 2.62038,-1.600531 2.95114,-1.600531 0.33075,0 0.60137,-0.19841 0.60137,-0.44092 0,-0.242507 0.71329,-0.862274 1.58509,-1.377271 3.85486,-2.27712 8.36619,-7.63592 10.51082,-12.48531 2.60222,-5.8841 1.74085,-14.46184 -2.23585,-22.26498 -2.35156,-4.614264 -2.46845,-5.322325 -0.72561,-4.395156 8.67105,4.61288 13.34251,12.720826 12.57203,21.820416 -1.18717,14.02067 -8.27657,21.845369 -32.10571,35.435589 -0.9275,0.52897 -3.1287,1.88572 -4.89155,3.01501 -1.76286,1.12928 -3.4703,2.05324 -3.79432,2.05324 -0.32401,0 -0.59109,0.18971 -0.5935,0.42159 -0.002,0.23187 -0.57156,0.69866 -1.26478,1.0373 -1.80435,0.88144 -10.56597,6.48478 -13.40817,8.57495 -2.79075,2.05234 -3.66243,2.19432 -4.14462,0.67507 z m -9.77282,-10.65689 c -4.7337,-3.1405 -10.26484,-8.56168 -11.37297,-11.14686 -1.91554,-4.46879 -1.03658,-9.010097 2.18834,-11.306452 2.98156,-2.123077 9.08609,-1.417873 11.35106,1.311291 0.41394,0.498767 0.90143,0.692967 1.0833,0.431567 1.23307,-1.772268 4.0725,-2.950671 7.10984,-2.950671 4.3787,0 6.76189,1.73023 7.29685,5.297605 0.68952,4.59807 -0.085,6.79377 -3.79561,10.76043 -1.85868,1.98695 -4.67919,4.55683 -6.26779,5.71085 -1.5886,1.15403 -3.22263,2.41961 -3.63117,2.81241 -1.01192,0.97292 -1.16037,0.93844 -3.96185,-0.92017 z M 84.186154,97.789845 c -3.840757,-0.39937 -4.321738,-0.554177 -9.117564,-2.934674 -7.064739,-3.50669 -11.021028,-8.83381 -12.50498,-16.8379 -1.882264,-10.15248 4.720407,-20.731115 16.138001,-25.855898 3.604358,-1.617814 13.083605,-1.75988 17.289072,-0.259111 8.229687,2.936858 13.255177,6.983388 16.073227,12.942159 1.96346,4.15175 2.45363,7.97297 1.65598,12.90954 -0.85804,5.31031 -2.50815,8.49328 -6.4685,12.47731 -3.17528,3.19427 -8.602133,6.45022 -10.750907,6.45022 -0.475624,0 -1.29081,0.218507 -1.811526,0.485577 -1.390666,0.713237 -6.639626,1.024474 -10.502803,0.622777 z m 7.895636,-9.030424 c 4.116899,-0.76105 6.110137,-1.7416 8.87508,-4.366 3.29634,-3.12878 4.51482,-5.89705 4.49236,-10.20618 -0.0224,-4.3034 -0.87854,-6.2398 -4.19669,-9.49241 -4.586693,-4.49609 -11.455935,-6.584666 -17.035703,-5.179665 -2.673732,0.673254 -7.795401,3.665055 -9.380707,5.479695 -4.287192,4.90741 -4.398407,13.03026 -0.252822,18.4654 2.542598,3.33352 7.539708,5.6304 12.731799,5.85206 0.793426,0.0339 2.938433,-0.21493 4.766683,-0.5529 z m 53.65652,9.250611 c -7.54727,-0.938634 -15.91111,-6.966661 -19.39199,-13.976261 -1.55128,-3.12386 -1.67532,-3.82984 -1.68119,-9.56787 -0.006,-5.86098 0.0923,-6.39551 1.82239,-9.9098 1.67703,-3.406549 7.15928,-9.471533 8.56148,-9.471533 0.26996,0 0.83479,-0.343944 1.25516,-0.764321 0.42038,-0.420376 2.39884,-1.353898 4.39659,-2.074493 4.98574,-1.798378 14.09983,-1.829795 18.11073,-0.06243 3.66846,1.616472 8.93762,5.269161 10.83122,7.508433 6.42056,7.592584 7.12977,20.514234 1.52966,27.870124 -3.75719,4.93518 -7.10053,7.30839 -13.2254,9.387857 -2.64231,0.897087 -9.04786,1.453394 -12.20865,1.060294 z m 12.20246,-10.651121 c 5.06391,-2.45156 8.03388,-7.21007 8.03388,-12.87196 0,-15.427768 -21.20329,-20.640297 -30.266,-7.44047 -2.03008,2.95682 -2.55813,5.29277 -2.07341,9.1723 0.69457,5.55922 5.4256,10.71736 11.35676,12.38206 3.77349,1.0591 9.28838,0.53016 12.94877,-1.24193 z"
       id="path1" /></g></svg>
